<svg width="1280" height="360" viewBox="0 0 1280 360" fill="none" xmlns="http://www.w3.org/2000/svg" role="img" aria-label="Ho Nguyen Minh Khoa profile banner">
  <defs>
    <linearGradient id="bg" x1="0" y1="0" x2="1280" y2="360" gradientUnits="userSpaceOnUse">
      <stop stop-color="#020617"/>
      <stop offset="0.55" stop-color="#071827"/>
      <stop offset="1" stop-color="#083344"/>
    </linearGradient>
    <radialGradient id="glowRight" cx="0" cy="0" r="1" gradientUnits="userSpaceOnUse" gradientTransform="translate(920 150) rotate(90) scale(190 470)">
      <stop stop-color="#22D3EE" stop-opacity="0.18"/>
      <stop offset="1" stop-color="#22D3EE" stop-opacity="0"/>
    </radialGradient>
    <radialGradient id="glowLeft" cx="0" cy="0" r="1" gradientUnits="userSpaceOnUse" gradientTransform="translate(210 240) rotate(90) scale(140 360)">
      <stop stop-color="#0EA5E9" stop-opacity="0.14"/>
      <stop offset="1" stop-color="#0EA5E9" stop-opacity="0"/>
    </radialGradient>
    <pattern id="grid" width="48" height="48" patternUnits="userSpaceOnUse">
      <path d="M48 0H0V48" stroke="#67E8F9" stroke-opacity="0.045"/>
    </pattern>
    <linearGradient id="accent" x1="90" y1="88" x2="190" y2="174" gradientUnits="userSpaceOnUse">
      <stop stop-color="#22D3EE"/>
      <stop offset="1" stop-color="#67E8F9"/>
    </linearGradient>
  </defs>

  <rect width="1280" height="360" rx="28" fill="url(#bg)"/>
  <rect width="1280" height="360" rx="28" fill="url(#grid)"/>
  <rect width="1280" height="360" rx="28" fill="url(#glowRight)"/>
  <rect width="1280" height="360" rx="28" fill="url(#glowLeft)"/>

  <g transform="translate(92 92)">
    <rect x="0" y="0" width="76" height="76" rx="22" fill="#0F172A" fill-opacity="0.78" stroke="#155E75"/>
    <path d="M24 24H52L60 38L52 52H24L16 38L24 24Z" stroke="url(#accent)" stroke-width="4" stroke-linejoin="round"/>
    <path d="M31 31L45 45M45 31L31 45" stroke="#E0F2FE" stroke-width="3" stroke-linecap="round"/>
  </g>

  <g transform="translate(196 104)">
    <text x="0" y="0" fill="#67E8F9" font-family="Inter, Segoe UI, Arial, sans-serif" font-size="16" font-weight="800" letter-spacing="3.2">
      SOFTWARE ENGINEERING STUDENT
    </text>
    <text x="0" y="72" fill="#F8FAFC" font-family="Inter, Segoe UI, Arial, sans-serif" font-size="58" font-weight="850" letter-spacing="-1.4">
      Hồ Nguyễn Minh Khoa
    </text>
    <text x="0" y="120" fill="#CBD5E1" font-family="Inter, Segoe UI, Arial, sans-serif" font-size="23" font-weight="500">
      Building products and learning by doing
    </text>
  </g>

  <g opacity="0.34">
    <path d="M744 84C850 34 1014 36 1138 92" stroke="#22D3EE" stroke-opacity="0.25"/>
    <path d="M708 252C846 310 1048 296 1198 204" stroke="#67E8F9" stroke-opacity="0.16"/>
    <circle cx="744" cy="84" r="4" fill="#22D3EE"/>
    <circle cx="1138" cy="92" r="4" fill="#67E8F9"/>
    <circle cx="1198" cy="204" r="4" fill="#22D3EE"/>
  </g>

  <g opacity="0.28" transform="translate(790 140)">
    <rect x="0" y="0" width="86" height="8" rx="4" fill="#22D3EE"/>
    <rect x="106" y="0" width="148" height="8" rx="4" fill="#67E8F9" fill-opacity="0.52"/>
    <rect x="34" y="30" width="166" height="8" rx="4" fill="#22D3EE" fill-opacity="0.32"/>
    <rect x="220" y="30" width="74" height="8" rx="4" fill="#67E8F9" fill-opacity="0.45"/>
  </g>

  <path d="M0 312C148 284 286 328 430 304C628 270 796 326 978 292C1104 268 1194 276 1280 250V360H0V312Z" fill="#06B6D4" fill-opacity="0.065"/>
  <path d="M0 330C176 300 326 344 504 318C704 288 846 334 1018 306C1136 286 1216 292 1280 276V360H0V330Z" fill="#67E8F9" fill-opacity="0.038"/>
  <rect x="0.5" y="0.5" width="1279" height="359" rx="27.5" stroke="#67E8F9" stroke-opacity="0.12"/>
</svg>
